<?xml version="1.0" encoding="UTF-8" standalone="no"?>
<!-- Created with Inkscape (http://www.inkscape.org/) -->

<svg
   xmlns:dc="http://purl.org/dc/elements/1.1/"
   xmlns:cc="http://creativecommons.org/ns#"
   xmlns:rdf="http://www.w3.org/1999/02/22-rdf-syntax-ns#"
   xmlns:svg="http://www.w3.org/2000/svg"
   xmlns="http://www.w3.org/2000/svg"
   xmlns:sodipodi="http://sodipodi.sourceforge.net/DTD/sodipodi-0.dtd"
   xmlns:inkscape="http://www.inkscape.org/namespaces/inkscape"
   width="11in"
   height="8.5in"
   viewBox="0 0 990 764.99999"
   id="svg2"
   version="1.1"
   inkscape:version="0.91 r13725"
   sodipodi:docname="03_01_DrawingPen.svg">
  <metadata
     id="metadata3">
    <rdf:RDF>
      <rdf:Description
         rdf:about="" />
      <cc:Work
         rdf:about="">
        <dc:format>image/svg+xml</dc:format>
        <dc:type
           rdf:resource="http://purl.org/dc/dcmitype/StillImage" />
        <dc:title />
      </cc:Work>
    </rdf:RDF>
  </metadata>
  <defs
     id="defs4" />
  <sodipodi:namedview
     id="base"
     pagecolor="#ffffff"
     bordercolor="#666666"
     borderopacity="1.0"
     inkscape:pageopacity="0.0"
     inkscape:pageshadow="2"
     inkscape:zoom="0.71372549"
     inkscape:cx="495"
     inkscape:cy="382.5"
     inkscape:document-units="px"
     inkscape:current-layer="layer1"
     showgrid="false"
     inkscape:window-width="1360"
     inkscape:window-height="745"
     inkscape:window-x="-8"
     inkscape:window-y="-8"
     inkscape:window-maximized="1"
     units="in"
     inkscape:snap-nodes="false" />
  <metadata
     id="metadata7">
    <rdf:RDF>
      <cc:Work
         rdf:about="">
        <dc:format>image/svg+xml</dc:format>
        <dc:type
           rdf:resource="http://purl.org/dc/dcmitype/StillImage" />
        <dc:title />
      </cc:Work>
    </rdf:RDF>
  </metadata>
  <g
     inkscape:label="Source"
     inkscape:groupmode="layer"
     id="layer1"
     transform="translate(0,-287.36221)"
     style="display:inline;opacity:0.3">
    <path
       style="display:inline;fill:#ffd52d;fill-opacity:1;fill-rule:evenodd;stroke:none"
       d="m 254.30028,333.54706 -142.87627,108.51442 36.38373,0 0,160.86771 56.05966,0 0,-103.38741 100.8683,0 0,103.38741 56.05964,0 0,-160.86771 36.3812,0 -142.87626,-108.51442 z"
       id="path298"
       inkscape:connector-curvature="0" />
    <path
       inkscape:connector-curvature="0"
       id="path266"
       style="display:inline;fill:#3fe8ed;fill-opacity:1;fill-rule:evenodd;stroke:none"
       d="m 743.86885,446.79393 c 64.67465,-17.13494 97.16626,31.64303 100.2332,67.48379 24.61223,-0.0312 43.78859,15.29529 44.74871,41.12944 0,22.80034 -18.47863,41.27316 -41.27965,41.27316 l -291.14399,0 c -38.26218,0 -66.02551,-25.22366 -66.92846,-66.9313 -0.90295,-41.70764 51.1977,-80.10067 94.4021,-61.04365 21.12967,-93.11269 128.49585,-91.44611 159.96809,-21.91144 z"
       sodipodi:nodetypes="cccsszcc" />
    <path
       sodipodi:nodetypes="ccssccccccccccc"
       inkscape:connector-curvature="0"
       id="path5533"
       d="m 801.83216,845.96701 c 0.69492,-32.90897 -17.91304,-62.12378 -39.31774,-85.57258 -16.45363,-20.94247 -42.22116,-49.20938 -46.24705,-76.59376 -1.44507,-9.82947 -2.77575,-16.52527 -7.49046,-16.53793 -5.66264,-0.0146 -4.14766,11.96296 -4.09899,18.04186 l 0,258.54726 c -25.88198,-17.36888 -61.6872,-6.30392 -81.94603,14.79087 -14.30222,13.86848 -22.67441,39.74942 -7.88701,56.12897 17.60516,16.6031 45.49993,11.4021 65.00606,1.291 20.40887,-10.1948 35.84907,-31.84774 33.59277,-55.27669 l 0,-196.99883 c 31.88237,0.78487 55.33405,27.59256 69.41966,53.67491 15.3121,31.55171 4.79517,67.90252 -8.84999,98.00406 -2.86704,6.66451 -3.88055,22.5959 -0.91759,16.93608 13.82226,-27.00501 28.58088,-55.22195 28.73637,-86.43522 z"
       style="fill:#000000;fill-opacity:1;fill-rule:nonzero;stroke:none" />
    <path
       inkscape:connector-curvature="0"
       id="path292-8"
       d="M 287.11138,931.40489 C 371.53694,924.68425 448.7664,893.59972 512.77304,845.60437 356.45085,841.22246 323.77289,703.7386 206.63083,710.44639 c -28.75866,0 -57.02901,14.14802 -76.754,36.39165 15.31739,28.52735 92.7653,158.82798 221.0356,134.93953 -139.16723,33.62887 -226.61257,-60.0488 -246.77447,-84.84961 -1.61912,7.41454 -2.55719,15.29169 -2.55719,23.18169 0,111.52654 102.27443,117.78457 185.53061,111.29524 l 0,0"
       style="fill:#00ff00" />
  </g>
  <g
     inkscape:groupmode="layer"
     id="layer2"
     inkscape:label="Drawing"
     style="display:inline" />
</svg>
